<?xml version="1.0" encoding="UTF-8"?>
<svg version="1.1" xmlns="http://www.w3.org/2000/svg" width="2084" height="2084">
<path d="M0 0 C687.72 0 1375.44 0 2084 0 C2084 687.72 2084 1375.44 2084 2084 C1396.28 2084 708.56 2084 0 2084 C0 1396.28 0 708.56 0 0 Z " fill="#FEFEFE" transform="translate(0,0)"/>
<path d="M0 0 C-0.0169693 1.20337572 -0.0339386 2.40675144 -0.05142212 3.64659309 C-0.4494764 32.25713464 -0.72261299 60.86708214 -0.84338564 89.48010118 C-0.85838106 93.00708354 -0.87442344 96.53406042 -0.89111328 100.06103516 C-0.89607053 101.11420427 -0.89607053 101.11420427 -0.90112793 102.18864952 C-0.95703115 113.5356799 -1.09760021 124.88014474 -1.2698617 136.22593714 C-1.4449223 147.88121037 -1.52627789 159.53438909 -1.52715683 171.19098365 C-1.53058718 177.73448786 -1.57578099 184.27155558 -1.72271729 190.81354141 C-3.88949062 216.23407011 -3.88949062 216.23407011 3.36462784 239.5279789 C8.91280814 244.70270526 14.94714468 247.29083577 22.21536636 249.20786858 C25.99934243 250.28427817 28.82337144 251.99504279 32.1171875 254.12109375 C34.03610652 255.22717308 35.95536872 256.33265727 37.875 257.4375 C40.05990538 258.69659802 42.24480092 259.95571311 44.4296875 261.21484375 C45.51475586 261.83987793 46.59982422 262.46491211 47.71777344 263.10888672 C54.22871257 266.86028024 60.73663194 270.61690994 67.24511719 274.37255859 C72.68585336 277.51182246 78.12731477 280.64981497 83.5703125 283.78515625 C84.65489746 284.41035156 85.73948242 285.03554688 86.85693359 285.6796875 C89.01786728 286.92465392 91.17963806 288.1681686 93.34228516 289.41015625 C98.86734236 292.58897935 104.36444735 295.80648864 109.828125 299.08984375 C110.92753418 299.745896 112.02694336 300.40194824 113.15966797 301.07788086 C115.25866843 302.33265919 117.35176627 303.59737985 119.43798828 304.87329102 C120.37368652 305.43072998 121.30938477 305.98816895 122.2734375 306.5625 C123.50199463 307.30693359 123.50199463 307.30693359 124.75537109 308.06640625 C127.41983574 309.17461952 128.3565848 309.05416154 131 308 C132.24157471 307.41053331 133.46169357 306.77436705 134.66015625 306.1015625 C135.36092285 305.7106543 136.06168945 305.31974609 136.78369141 304.91699219 C137.53569824 304.49063477 138.28770508 304.06427734 139.0625 303.625 C139.85833496 303.17801758 140.65416992 302.73103516 141.47412109 302.27050781 C153.2421621 295.64017065 164.8963523 288.81259041 176.56079102 282.00244141 C177.55135498 281.42413574 178.54191895 280.84583008 179.5625 280.25 C180.564021 279.66524902 181.56554199 279.08049805 182.59741211 278.47802734 C198.80083157 269.02421445 215.04702924 259.6423473 231.36206055 250.38232422 C232.8978512 249.50813254 234.42060413 248.61064082 235.92949772 247.69080162 C238.35396407 246.3557459 240.61471191 245.33201974 243.16914272 244.31382179 C251.52734099 240.70578377 251.52734099 240.70578377 256.9824326 233.78246069 C258.5753114 227.02685823 258.19083927 220.09083657 258.02172852 213.20068359 C258.02679972 210.87408769 258.03935483 208.54749789 258.05880737 206.22097778 C258.0903529 199.92231251 258.01750801 193.62870643 257.92562604 187.33079481 C257.84735916 180.74315109 257.86547076 174.15578225 257.87327576 167.56777954 C257.87624888 156.51630474 257.81441206 145.46647786 257.7097168 134.41552734 C257.60208305 123.03720475 257.53035822 111.65958192 257.5065918 100.28076172 C257.50511249 99.578458 257.50363319 98.87615428 257.50210906 98.15256862 C257.49490766 94.6290351 257.48840871 91.10550071 257.48225892 87.58196521 C257.43039623 58.38713086 257.25435577 29.1937583 257 0 C258.60409219 0.79399964 260.2072698 1.58984717 261.81005859 2.38647461 C262.70292572 2.82946396 263.59579285 3.27245331 264.51571655 3.72886658 C291.24266893 17.4042475 316.83552831 41.4034863 335 65 C335.74894531 65.92039062 336.49789063 66.84078125 337.26953125 67.7890625 C359.01411697 94.9785768 375.51352355 127.20588483 384 161 C384.24202148 161.94391602 384.48404297 162.88783203 384.73339844 163.86035156 C390.46217253 186.45678929 393.25497433 208.09753477 393.3125 231.375 C393.31626648 232.21468323 393.32003296 233.05436646 393.32391357 233.91949463 C393.40601137 270.00633199 385.37544332 304.95392956 371 338 C370.65743164 338.78826172 370.31486328 339.57652344 369.96191406 340.38867188 C359.99936721 362.98777629 346.60748123 382.81036693 330.97900391 401.81396484 C269.33569135 477.28109491 234.92181525 573.84550562 233.28876416 714.88348194 C233.29672961 723.30050005 233.27580035 731.71738558 233.25378648 740.13436981 C233.21528153 755.13361148 233.19825712 770.13279223 233.19555664 785.13208008 C233.19289205 799.6662915 233.17954756 814.20043168 233.15258789 828.73461914 C233.15007162 830.1015632 233.15007162 830.1015632 233.14750451 831.4961223 C233.13429608 838.62747521 233.12048598 845.75882693 233.10648644 852.89017832 C233.03851321 887.59346659 233.02281618 922.29659583 233 957 C186.14 957 139.28 957 91 957 C89.85142368 938.62277881 89.85142368 938.62277881 89.817276 932.00331116 C89.80586412 930.83795424 89.80586412 930.83795424 89.7942217 929.64905477 C89.77032472 927.10728095 89.75244156 924.56550467 89.73461914 922.02368164 C89.7183521 920.16515618 89.70169307 918.30663412 89.68467903 916.44811535 C89.64890182 912.45277466 89.61578193 908.45742424 89.5847683 904.46204376 C89.53471688 898.02305564 89.47836952 891.58413112 89.42121887 885.14520264 C89.33981324 875.91319574 89.2609142 866.68117071 89.18377686 857.4491272 C88.99222455 834.56636085 88.78623672 811.6837227 88.5762682 788.80111861 C88.55403511 786.37797642 88.53184578 783.95483383 88.50969982 781.53169084 C88.04515496 730.7398709 87.40178448 679.95175482 86.64183033 629.16357398 C86.6099467 627.02804333 86.5782591 624.89250986 86.54664707 622.75697517 C86.52619061 621.37592696 86.50573336 619.99487876 86.48527527 618.61383057 C86.4753572 617.94355312 86.46543913 617.27327567 86.45522052 616.58268678 C86.39057231 612.23043764 86.32272307 607.87824623 86.25386047 603.52606201 C86.16871321 598.0909991 86.10415709 592.65592746 86.04543304 587.22052383 C85.99771184 583.83780362 85.91790796 580.45663094 85.8369751 577.07455444 C85.79960948 574.82665173 85.7629433 572.57873726 85.72705078 570.33081055 C85.69491423 569.30800649 85.66277767 568.28520243 85.62966728 567.2314043 C85.53880028 559.23889515 87.20139682 553.99385457 92.6875 548.125 C99.96453077 543.45671611 108.33857575 543.68200243 116.75390625 543.6640625 C117.85419662 543.6574057 118.954487 543.6507489 120.08811951 543.64389038 C122.40174703 543.63381601 124.7154033 543.62907173 127.02905273 543.62939453 C130.55566234 543.6250085 134.08103203 543.58859645 137.60742188 543.55078125 C139.86457909 543.54491447 142.1217422 543.54094415 144.37890625 543.5390625 C145.42494522 543.52469147 146.47098419 543.51032043 147.54872131 543.49551392 C153.88020927 543.53481097 158.73086157 544.32617705 164 548 C166.05859375 550.21875 166.05859375 550.21875 167.4375 552.5 C168.14712891 553.62921875 168.14712891 553.62921875 168.87109375 554.78125 C170.7317693 558.43821787 171.12829615 561.71800193 171.18945312 565.79241943 C171.20620873 566.75806383 171.22296434 567.72370823 171.2402277 568.71861458 C171.26053374 570.30374509 171.26053374 570.30374509 171.28125 571.92089844 C171.2993167 573.04393309 171.3173834 574.16696774 171.33599758 575.32403374 C171.39526457 579.08575898 171.44769602 582.84754696 171.5 586.609375 C171.54035379 589.2811236 171.5810404 591.95286539 171.62208557 594.62460327 C171.7204709 601.08912837 171.8134376 607.55372098 171.90448874 614.0183531 C171.97824645 619.24580825 172.05441404 624.47322364 172.13204956 629.70062256 C172.59964752 661.22417698 173.0243327 692.74771034 173.31640625 724.2734375 C173.32761883 725.47897781 173.33883141 726.68451813 173.35038376 727.92658997 C173.45500645 739.26828076 173.553049 750.60999248 173.63487339 761.95187187 C173.66502305 766.05637906 173.69822005 770.16085872 173.73182487 774.2653389 C173.75289912 777.00202673 173.76925 779.73871228 173.78529358 782.47543335 C173.79874948 784.15175578 173.81244319 785.82807633 173.82641602 787.50439453 C173.82903442 788.20507931 173.83165283 788.90576408 173.83435059 789.62768173 C173.91671207 798.09570856 174.50128862 806.548493 175 815 C175.26556615 791.56646288 175.52645152 768.13287737 175.78230286 744.6992321 C175.90129779 733.80955496 176.02165067 722.91989644 176.14550781 712.03027344 C176.46027239 684.30036365 176.74956852 656.57036214 176.9766922 628.83958244 C176.99213856 626.95775652 177.00775639 625.07593199 177.02355194 623.19410896 C177.11666756 612.09278992 177.19236873 600.99166748 177.23117065 589.89001846 C177.24209207 586.87879641 177.25976629 583.86774005 177.28372192 580.85659409 C177.31572207 576.77688597 177.32342201 572.69750678 177.328125 568.61767578 C177.34042648 567.44206211 177.35272797 566.26644844 177.36540222 565.05521011 C177.33991614 555.69299383 175.87322739 548.87322739 169 542 C166.72576631 540.4463662 164.46994043 539.25742422 162 538 C161.04009155 537.46366943 161.04009155 537.46366943 160.06079102 536.91650391 C157.76883888 535.89719478 156.08932899 535.68903631 153.58984375 535.5859375 C152.69918213 535.54694336 151.80852051 535.50794922 150.89086914 535.46777344 C149.91625732 535.4371582 148.94164551 535.40654297 147.9375 535.375 C146.39920532 535.32134277 146.39920532 535.32134277 144.82983398 535.26660156 C135.85348593 534.9908305 126.87262285 534.83770701 117.8923645 534.76983643 C116.35152403 534.75671774 114.81071593 534.73885149 113.26998901 534.71600342 C102.175824 534.56333764 92.77426353 534.99999216 83.7890625 542.1953125 C76.66131478 549.38531129 74.71596056 558.6728804 74.60621643 568.41438293 C74.58810286 569.35553808 74.56998928 570.29669322 74.55132681 571.26636821 C74.4931791 574.416831 74.4487753 577.56733093 74.40454102 580.71801758 C74.36616178 582.97705227 74.32704715 585.23607456 74.28725243 587.49508476 C74.18169247 593.64860348 74.08889204 599.80225514 73.99898219 605.95602012 C73.94116285 609.84841692 73.87983188 613.74074251 73.81729317 617.63306618 C72.90504785 674.45865126 72.41530203 731.28777835 71.99383545 788.11889648 C71.85202622 807.22022445 71.70402344 826.3215043 71.55081373 845.4227441 C71.49448692 852.47419521 71.44134644 859.52565972 71.39096195 866.57715565 C71.17285223 896.72631423 70.66740494 926.85675437 70 957 C54.82 957 39.64 957 24 957 C23.9845388 951.4820295 23.9845388 951.4820295 23.96876526 945.85258484 C23.87362906 912.05574377 23.77379262 878.25891917 23.66888306 844.46210698 C23.65511481 840.02527521 23.64138752 835.58844331 23.62768555 831.15161133 C23.62495724 830.26838264 23.62222894 829.38515395 23.61941796 828.47516076 C23.57543991 814.20667976 23.53477308 799.93819117 23.49534739 785.66969695 C23.45476623 771.00994279 23.41058623 756.35020259 23.36312145 741.69046909 C23.33398604 732.65734087 23.30759967 723.62421346 23.28482103 714.59106693 C23.26889401 708.38206535 23.24944594 702.17308077 23.22733159 695.96409818 C23.21470689 692.39120036 23.2035359 688.81831512 23.19658089 685.24540138 C23.19220018 657.7395032 23.19220018 657.7395032 20.8359375 630.35546875 C20.72345169 629.46487762 20.61096588 628.5742865 20.49507141 627.65670776 C20.13271433 624.83206013 19.7563144 622.00964772 19.375 619.1875 C19.17809067 617.71807449 19.17809067 617.71807449 18.97720337 616.21896362 C16.66660013 599.16665291 13.56000623 582.61095398 9 566 C8.67692871 564.80020508 8.35385742 563.60041016 8.02099609 562.36425781 C-2.21609096 524.83322458 -17.84925265 489.36685273 -37.09887695 455.6027832 C-37.76434008 454.41915671 -38.39274176 453.21451648 -39 452 C-35.32989396 453.28349644 -32.23759747 455.04342363 -28.9921875 457.17211914 C-6.98674888 471.60205188 17.66262814 481.76038548 43.0625 488.48242188 C44.9233517 488.9795244 46.77451648 489.51246812 48.625 490.046875 C97.79203268 503.1446501 151.08582929 498.42369876 199 483 C198.30140869 483.16604736 197.60281738 483.33209473 196.88305664 483.50317383 C172.14316226 489.36053734 149.07402424 493.23097688 123.625 493.25 C122.68936218 493.25100708 121.75372437 493.25201416 120.78973389 493.25305176 C107.80161633 493.24359716 95.1051054 492.93546315 82.31542969 490.44873047 C79.93727672 489.98784422 77.55390034 489.5868367 75.1640625 489.19140625 C28.33455027 481.06539666 -16.89885833 458.01996413 -51.4296875 425.41796875 C-53.6308647 423.34725646 -55.87587099 421.38198793 -58.1875 419.4375 C-62.89051674 415.34539059 -66.93248193 410.71261692 -71 406 C-71.78246094 405.10539062 -72.56492187 404.21078125 -73.37109375 403.2890625 C-94.02332086 379.16726123 -110.3602456 350.90411672 -121 321 C-121.51022705 319.56599854 -121.51022705 319.56599854 -122.03076172 318.10302734 C-131.75620578 290.28978183 -136.42789118 262.39784751 -136.3125 233 C-136.31026428 231.58701126 -136.31026428 231.58701126 -136.3079834 230.14547729 C-136.26564714 215.22684163 -135.54792732 200.72751898 -133 186 C-132.86609863 185.16210938 -132.73219727 184.32421875 -132.59423828 183.4609375 C-125.57252806 140.01995693 -105.48676628 99.08533815 -78 65 C-77.22011719 64.01515625 -76.44023438 63.0303125 -75.63671875 62.015625 C-63.65155174 47.3277376 -50.05583813 33.39822952 -34.69628906 22.23876953 C-32.89117492 20.92052699 -31.11316455 19.57041131 -29.3359375 18.21484375 C-5.25349707 0 -5.25349707 0 0 0 Z " fill="#595959" transform="translate(690,556)"/>
<path d="M0 0 C2.82887947 1.09014148 5.32005677 2.57276553 7.9282341 4.11749554 C8.79517899 4.6281229 8.79517899 4.6281229 9.67963791 5.14906597 C11.57002706 6.26402759 13.45614137 7.38601399 15.3422966 8.50812054 C16.66217816 9.28844086 17.98233066 10.06830308 19.30274582 10.84772015 C21.95753671 12.41586242 24.6106547 13.98677389 27.26221848 15.56036663 C30.44729647 17.450526 33.6359787 19.3344816 36.8266716 21.21515179 C37.70871262 21.73544964 38.59075363 22.25574749 39.49952316 22.79181194 C41.22496725 23.80920656 42.95087741 24.82581117 44.67725754 25.84161663 C49.24188304 28.53351017 53.78866712 31.251516 58.31254196 34.01121807 C60.79229308 35.52200778 63.27770027 37.02335059 65.76362228 38.52395916 C66.97428443 39.25827236 68.1822267 39.9970903 69.38727951 40.74057293 C71.06594551 41.77585871 72.75471434 42.79470875 74.4438591 43.81280804 C75.41403976 44.40561565 76.38422043 44.99842327 77.38380051 45.60919476 C79.80547526 46.92490146 79.80547526 46.92490146 81.98902512 46.63092327 C84.51366015 45.51706788 86.79554945 44.19150024 89.14307785 42.73858929 C90.13630051 42.12821819 91.12952316 41.5178471 92.15284348 40.88897991 C93.18473801 40.24767132 94.21663254 39.60636272 95.2797966 38.94562054 C113.40652383 27.75812054 113.40652383 27.75812054 115.9672966 27.75812054 C115.35017229 31.08455312 114.55631621 34.25151848 113.5141716 37.46905804 C109.17926151 51.09671112 105.51752085 64.68140941 102.9672966 78.75812054 C102.76974777 79.8431889 102.57219894 80.92825726 102.36866379 82.04620647 C98.96583345 101.56653436 98.48761402 120.71375749 98.72901535 140.47687054 C98.73658859 141.22561947 98.74416183 141.9743684 98.75196457 142.74580669 C98.83967466 147.63211783 99.45755718 152.21828846 100.41651535 156.99640179 C100.7079299 159.53314153 100.67090706 161.28730241 99.9672966 163.75812054 C97.72160208 166.35746774 95.28932939 168.41435656 92.6235466 170.57843304 C89.60960896 173.0516348 87.21362764 175.73361595 84.71339035 178.70733929 C83.53219743 180.09464641 82.31427628 181.45136798 81.06495285 182.77765179 C58.33642607 206.94522867 41.05296137 236.86126908 28.84034348 267.57355022 C28.05346032 269.54251848 27.24083911 271.49828222 26.4204216 273.45343304 C13.11805135 306.56632242 8.52019433 342.04945645 8.6547966 377.50812054 C8.65661942 378.51214916 8.65844223 379.51617779 8.66032028 380.55063152 C8.70687985 395.82201928 9.24096089 410.69650671 11.9672966 425.75812054 C12.11231613 426.63564983 12.25733566 427.51317913 12.40674973 428.41730022 C17.06576539 456.05877628 27.2270968 483.8766397 39.9672966 508.75812054 C40.37125656 509.55234417 40.77521652 510.3465678 41.19141769 511.16485882 C50.4900683 529.20310006 62.0077465 546.15814374 74.9672966 561.75812054 C75.65807297 562.60116741 75.65807297 562.60116741 76.36280441 563.46124554 C86.57898846 575.89712139 97.65140182 587.71393967 110.33057785 597.67218304 C112.11292594 599.08221841 113.86035168 600.537368 115.57276535 602.03155804 C156.2385054 637.47785896 206.88916265 654.83847598 258.9672966 664.75812054 C258.9672966 727.45812054 258.9672966 790.15812054 258.9672966 854.75812054 C254.6772966 854.75812054 250.3872966 854.75812054 245.9672966 854.75812054 C242.46215989 844.35127658 239.6827663 833.85319455 237.19923019 823.15680218 C235.44894326 815.63590534 233.50270517 808.18079738 231.49412155 800.72500896 C230.06654546 795.39518758 228.68559828 790.05299181 227.30250168 784.71148968 C226.94977825 783.35117333 226.59591024 781.99115332 226.24097824 780.63141155 C225.7162399 778.62090796 225.19491365 776.60954658 224.67432785 774.59796429 C224.3698674 773.42612591 224.06540695 772.25428753 223.75172043 771.0469389 C223.01554116 767.96039331 222.4467005 764.89373745 221.9672966 761.75812054 C221.38826584 761.72001263 220.80923508 761.68190472 220.21265793 761.64264202 C173.2381562 757.83039324 123.79156512 731.87525763 84.75709152 706.87457561 C82.96555467 705.71810709 82.96555467 705.71810709 80.9672966 704.75812054 C78.38462152 705.96634875 78.38462152 705.96634875 75.44776535 707.78155804 C74.88588516 708.11400524 74.32400497 708.44645245 73.74509811 708.78897381 C71.87719365 709.89635045 70.01615856 711.01478764 68.1547966 712.13312054 C66.84792384 712.91032957 65.54054305 713.68668493 64.23267746 714.4622221 C61.50585517 716.0800342 58.78128544 717.70154931 56.05811691 719.32550335 C52.17079217 721.64078375 48.27116145 723.93447135 44.3657341 726.21905804 C43.44818344 726.75593243 43.44818344 726.75593243 42.51209641 727.30365276 C40.080531 728.72576134 37.6484515 730.14698527 35.21570969 731.5670805 C28.91309386 735.24698252 22.62810299 738.94983425 16.3969841 742.75030804 C14.87319138 743.67311565 14.87319138 743.67311565 13.31861496 744.61456585 C11.42762464 745.76231062 9.54260116 746.91996645 7.66480637 748.08917522 C6.83521408 748.5909428 6.0056218 749.09271038 5.15089035 749.60968304 C4.43473557 750.05134808 3.71858078 750.49301311 2.98072433 750.94806194 C0.4480764 751.96701743 -0.48539646 751.65677545 -3.0327034 750.75812054 C-4.68058014 749.47938728 -4.68058014 749.47938728 -6.32304764 747.82853985 C-6.9511937 747.20451778 -7.57933975 746.58049572 -8.22652054 745.9375639 C-8.90409409 745.24920452 -9.58166763 744.56084515 -10.27977371 743.8516264 C-11.00212204 743.12971615 -11.72447037 742.4078059 -12.46870804 741.66401958 C-14.85659348 739.27404271 -17.23367508 736.87361206 -19.6108284 734.47296429 C-21.2635553 732.81464273 -22.91694542 731.1569819 -24.57097244 729.49995708 C-28.92428916 725.13518149 -33.26852214 720.7614719 -37.61095047 716.38586712 C-42.04297862 711.92316083 -46.4835027 707.46892629 -50.9233284 703.01397991 C-59.63480907 694.27031664 -68.3367208 685.5171956 -77.0327034 676.75812054 C-76.0970452 675.03487569 -75.16040898 673.31216185 -74.22337723 671.58966351 C-73.44115547 670.15057125 -73.44115547 670.15057125 -72.64313126 668.68240643 C-70.08365301 664.034793 -67.4050023 659.45912568 -64.7202034 654.88312054 C-64.12626785 653.86790325 -63.53233231 652.85268597 -62.92039871 651.80670452 C-61.30275144 649.04263222 -59.68360098 646.27944803 -58.06364822 643.51672649 C-56.63990989 641.08808564 -55.2173382 638.65876222 -53.7947731 636.22943401 C-52.69173753 634.34604832 -51.58819018 632.46296315 -50.4846077 630.57989788 C-49.0243717 628.08793521 -47.56641385 625.59465995 -46.11009598 623.10040569 C-43.01831311 617.810292 -39.91373176 612.53221773 -36.6967659 607.31671429 C-36.21691238 606.53095013 -35.73705887 605.74518597 -35.24266434 604.93561077 C-34.3859073 603.53813162 -33.51768732 602.14757924 -32.63524246 600.76617718 C-31.06739663 598.19550296 -30.03524529 596.30123878 -30.02098465 593.25421429 C-31.40399512 589.84207649 -33.31970701 586.87452319 -35.3452034 583.82062054 C-45.13015013 568.59144463 -53.56195479 552.52008001 -61.00780106 536.02765179 C-61.67488081 534.55047851 -62.34869944 533.07632389 -63.03026199 531.60577679 C-73.20867699 509.56012881 -81.2841426 484.2254928 -85.7827034 460.38312054 C-86.02504715 459.11726116 -86.2673909 457.85140179 -86.5170784 456.54718304 C-86.68723465 455.62679241 -86.8573909 454.70640179 -87.0327034 453.75812054 C-87.5903035 453.62760296 -88.14790359 453.49708538 -88.72240067 453.36261272 C-100.20949408 450.66754119 -111.65010739 447.86886198 -123.0327034 444.75812054 C-127.32333548 443.58761932 -131.61501091 442.42104329 -135.9077034 441.25812054 C-137.03611649 440.95237103 -138.16452957 440.64662151 -139.32713699 440.33160686 C-146.83791853 438.31089827 -154.36178852 436.44481861 -161.95848465 434.77765179 C-167.71329078 433.33757087 -173.36278043 431.50271222 -179.0327034 429.75812054 C-179.0327034 394.11812054 -179.0327034 358.47812054 -179.0327034 321.75812054 C-163.1927034 317.79812054 -163.1927034 317.79812054 -147.0327034 313.75812054 C-140.1027034 311.77812054 -140.1027034 311.77812054 -133.0327034 309.75812054 C-130.20001428 309.06440075 -127.37797143 308.38908706 -124.5327034 307.75812054 C-118.08617854 306.28720474 -111.75156739 304.56397035 -105.40379715 302.70733929 C-91.37838241 298.75812054 -91.37838241 298.75812054 -86.0327034 298.75812054 C-85.98879471 298.08369915 -85.94488602 297.40927776 -85.89964676 296.71441936 C-85.3927623 290.07302197 -84.32621577 283.87110119 -82.5952034 277.44562054 C-82.3364241 276.47560101 -82.07764481 275.50558147 -81.81102371 274.50616741 C-75.89460623 252.91429331 -68.42906101 232.07654291 -59.0327034 211.75812054 C-58.29626889 210.12434716 -57.56057082 208.49024159 -56.82567215 206.85577679 C-49.73185842 191.2813407 -41.60128172 175.91174813 -31.26317215 162.23077679 C-29.55233319 158.79280515 -29.86689122 157.42584423 -31.0327034 153.75812054 C-32.68908651 150.45974413 -34.59873658 147.33738929 -36.5327034 144.19562054 C-37.72373936 142.22222429 -38.9137933 140.2482351 -40.1030159 138.27374554 C-40.74013504 137.22122601 -41.37725418 136.16870647 -42.03367996 135.08429241 C-44.09709419 131.65098081 -46.13010302 128.20156632 -48.1498909 124.74249554 C-48.49800323 124.1463847 -48.84611557 123.55027386 -49.20477676 122.93609905 C-50.27279818 121.1061605 -51.34028668 119.27591187 -52.4077034 117.44562054 C-56.69736519 110.09184485 -61.01188022 102.75746715 -65.45067215 95.49249554 C-66.15526347 94.33535126 -66.85985335 93.17820609 -67.56444168 92.02105999 C-68.88975525 89.8508152 -70.22244256 87.68505126 -71.56346512 85.52447796 C-72.15272781 84.55872845 -72.74199051 83.59297894 -73.34910965 82.59796429 C-73.86932693 81.75612591 -74.38954422 80.91428753 -74.92552567 80.0469389 C-76.0327034 77.75812054 -76.0327034 77.75812054 -76.0327034 73.75812054 C-74.88819122 72.10745049 -74.88819122 72.10745049 -73.25029373 70.46104717 C-72.63342697 69.83145596 -72.01656021 69.20186474 -71.38100052 68.553195 C-70.69533005 67.87405041 -70.00965958 67.19490582 -69.30321121 66.49518108 C-68.23020264 65.40924915 -68.23020264 65.40924915 -67.13551712 64.3013792 C-64.7624287 61.90554309 -62.37483669 59.52479391 -59.9858284 57.14483929 C-58.33579669 55.48957644 -56.68628746 53.83379261 -55.03728104 52.17750835 C-51.57689707 48.70670418 -48.10910459 45.24351362 -44.63621902 41.78522015 C-40.17732293 37.34352454 -35.73910807 32.88179246 -31.30643463 28.41394615 C-27.90441241 24.99001045 -24.49082819 21.57779248 -21.07368088 18.16895771 C-19.43195115 16.5280506 -17.79408825 14.88326556 -16.16012192 13.23462772 C-13.87843694 10.93560774 -11.58150203 8.65301561 -9.27977371 6.37408733 C-8.60220016 5.68482159 -7.92462662 4.99555584 -7.22652054 4.28540325 C-6.59837448 3.66991116 -5.97022842 3.05441906 -5.32304764 2.42027569 C-4.78103336 1.87884772 -4.23901909 1.33741976 -3.68058014 0.77958488 C-2.0327034 -0.24187946 -2.0327034 -0.24187946 0 0 Z " fill="#289EE7" transform="translate(435.0327033996582,658.2418794631958)"/>
<path d="M0 0 C0.66 0 1.32 0 2 0 C2.09498779 0.54712646 2.18997559 1.09425293 2.2878418 1.65795898 C9.4568674 42.40440304 25.94068154 77.02758458 53.89453125 107.67578125 C55.73977555 109.71273925 57.5308167 111.78270847 59.3125 113.875 C61.81651918 116.76647711 64.46328955 119.4557634 67.20629883 122.12109375 C74.18650714 128.92135995 80.18572046 136.19028724 86 144 C86.43054688 144.56976562 86.86109375 145.13953125 87.3046875 145.7265625 C123.38447398 193.6142791 135.8669886 254.66524974 142.75646973 312.96844482 C143.12026153 316.00323433 143.51200466 319.03442817 143.8984375 322.06640625 C145.6360674 336.28687799 146.50368437 350.5091097 147.1875 364.8125 C147.23047211 365.70673676 147.27344421 366.60097351 147.31771851 367.52230835 C147.82631253 378.35597241 148.12047816 389.15387664 148 400 C108.47122113 398.63451625 67.17723303 376.05867303 37 352 C36.05511719 351.26652344 35.11023438 350.53304688 34.13671875 349.77734375 C28.43455706 345.25785264 23.07509579 340.38981468 17.75 335.4375 C16.75709961 334.51747192 16.75709961 334.51747192 15.74414062 333.57885742 C11.19027106 329.29276178 7.03282765 324.77688963 3 320 C2.47035645 319.37649658 1.94071289 318.75299316 1.39501953 318.1105957 C-30.36635529 280.41062376 -49.34953516 235.72944132 -56 187 C-56.1038501 186.24323975 -56.2077002 185.48647949 -56.31469727 184.70678711 C-63.90515443 120.5465862 -43.64402456 56.04219139 -4.49267578 5.33032227 C-1.31716708 1.33046434 -1.31716708 1.33046434 0 0 Z " fill="#064C84" transform="translate(546,876)"/>
<path d="M0 0 C120.31937394 0 120.31937394 0 141.84765625 20.62109375 C152.14957926 32.00742971 155.1762422 45.94716011 155.1875 60.875 C155.19974609 61.72191406 155.21199219 62.56882812 155.22460938 63.44140625 C155.2556374 76.94894038 151.20428478 88.98770549 142 99 C126.95016611 114 126.95016611 114 121 114 C121.680625 115.13050781 122.36125 116.26101563 123.0625 117.42578125 C129.69882289 128.46145116 136.28352816 139.52669935 142.83691406 150.61181641 C146.27381475 156.42154815 149.72687223 162.22076196 153.21484375 168 C153.89248779 169.1238208 154.57013184 170.2476416 155.26831055 171.40551758 C156.55227547 173.5319609 157.83874042 175.6568975 159.12817383 177.7800293 C159.70978271 178.74336182 160.2913916 179.70669434 160.890625 180.69921875 C161.39625977 181.53283936 161.90189453 182.36645996 162.42285156 183.2253418 C164.4213211 186.74122512 166.19139192 190.38278383 168 194 C146.88 194 125.76 194 104 194 C92.62451841 172.38658497 92.62451841 172.38658497 87.0625 161.625 C83.61813823 154.96289171 80.16906159 148.30417756 76.66015625 141.67578125 C76.14638428 140.70366699 75.6326123 139.73155273 75.10327148 138.72998047 C74.13883223 136.90813799 73.17104845 135.08806095 72.19946289 133.27001953 C71.77528076 132.46806152 71.35109863 131.66610352 70.9140625 130.83984375 C70.5423291 130.14238037 70.1705957 129.44491699 69.78759766 128.72631836 C69 127 69 127 69 125 C65.37 125 61.74 125 58 125 C58 148.1 58 171.2 58 195 C38.86 195 19.72 195 0 195 C0 130.65 0 66.3 0 0 Z " fill="#595959" transform="translate(1693,1206)"/>
<path d="M0 0 C20.46 0 40.92 0 62 0 C65.60949705 8.66279293 69.13821823 17.32844429 72.5625 26.0625 C73.03107422 27.25166016 73.49964844 28.44082031 73.98242188 29.66601562 C76.13870097 35.15774183 78.27411122 40.65710034 80.33984375 46.18359375 C80.66202881 47.0439624 80.98421387 47.90433105 81.31616211 48.79077148 C82 51 82 51 82 54 C82.66 54 83.32 54 84 54 C84.16494461 53.47471207 84.32988922 52.94942413 84.49983215 52.40821838 C86.49734907 46.2171105 88.89742155 40.25843569 91.44921875 34.27734375 C92.00494568 32.96401062 92.00494568 32.96401062 92.57189941 31.62414551 C93.94002122 28.39367506 95.31409995 25.16572999 96.6875 21.9375 C99.760625 14.698125 102.83375 7.45875 106 0 C126.13 0 146.26 0 167 0 C165.64688618 3.38278456 164.36135473 6.33742351 162.63671875 9.4921875 C162.1689502 10.34981689 161.70118164 11.20744629 161.21923828 12.09106445 C160.71376465 13.00976318 160.20829102 13.92846191 159.6875 14.875 C158.89061768 16.32942505 158.89061768 16.32942505 158.07763672 17.81323242 C153.24928506 26.59970135 148.31941726 35.32759279 143.37109375 44.046875 C141.01752425 48.19624363 138.67759865 52.35294262 136.34765625 56.515625 C135.73986328 57.60004883 135.13207031 58.68447266 134.50585938 59.80175781 C133.3048904 61.9553751 132.11200767 64.113524 130.92773438 66.27636719 C128.48440548 70.71662068 126.07116336 75.04338731 123.05859375 79.125 C120.74916909 82.30686425 118.98430187 85.13377582 118 89 C119.21294766 94.0908813 121.71027315 98.00955339 124.46679688 102.41259766 C127.25337637 107.11517241 129.57243786 112.05889628 131.97027588 116.96774292 C136.4557231 126.11369176 141.0884079 135.18360275 145.87475586 144.17553711 C148.79947554 149.68370989 151.66455912 155.22099661 154.51171875 160.76953125 C155.11577042 161.94652336 155.11577042 161.94652336 155.73202515 163.14729309 C157.77219324 167.12429411 159.80964554 171.10266913 161.84472656 175.08227539 C162.60347601 176.56268306 163.36226346 178.04307126 164.12109375 179.5234375 C164.46758469 180.20287918 164.81407562 180.88232086 165.17106628 181.58235168 C166.60795577 184.38279726 168.06999285 187.11166296 169.74243164 189.77978516 C171 192 171 192 171 195 C150.54 195 130.08 195 109 195 C97.75 167 97.75 167 94.22167969 158.203125 C93.28867692 155.88530979 92.35542526 153.56759475 91.421875 151.25 C90.94572754 150.06019531 90.46958008 148.87039063 89.97900391 147.64453125 C87.54855645 141.62004389 85.01435531 135.75580602 82 130 C81.55720703 131.19262451 81.11441406 132.38524902 80.65820312 133.61401367 C78.97419557 138.14901192 77.28901063 142.68357198 75.60351562 147.21801758 C74.88185311 149.15996031 74.16048671 151.10201312 73.43945312 153.04418945 C72.38754918 155.87742516 71.33448657 158.71022821 70.28125 161.54296875 C69.97255981 162.37515427 69.66386963 163.20733978 69.3458252 164.06474304 C65.6243029 174.06677379 61.79956384 184.02614492 58 194 C37.87 194 17.74 194 -3 194 C-1.75079927 190.2523978 -0.70811633 187.16686017 1.01808167 183.73678589 C1.41485107 182.94338806 1.81162048 182.14999023 2.22041321 181.33255005 C2.65113632 180.48143646 3.08185944 179.63032288 3.52563477 178.75341797 C3.98273834 177.84213135 4.43984192 176.93084473 4.91079712 175.99194336 C5.90045326 174.02022285 6.89195629 172.04942848 7.88510323 170.07946396 C9.45616136 166.96291743 11.02217762 163.84388403 12.5868988 160.72415161 C15.90763114 154.1055184 19.23462006 147.49004162 22.5625 140.875 C26.42243357 133.20230674 30.27980302 125.52834742 34.13044548 117.85098648 C35.67441216 114.77603281 37.22317237 111.70352495 38.77210999 108.631073 C39.71622924 106.75009809 40.66012469 104.86901083 41.60375977 102.98779297 C42.03650711 102.13263092 42.46925446 101.27746887 42.91511536 100.39639282 C43.30906494 99.60863464 43.70301453 98.82087646 44.10890198 98.00924683 C44.45197671 97.32753859 44.79505144 96.64583035 45.14852238 95.94346428 C46.59302031 92.6464544 47.32574597 90.85768694 46.01879883 87.41650391 C45.50341553 86.44632324 44.98803223 85.47614258 44.45703125 84.4765625 C43.88412354 83.3848877 43.31121582 82.29321289 42.72094727 81.16845703 C42.08509546 79.98714462 41.44893855 78.8059964 40.8125 77.625 C40.16304218 76.39877158 39.51453376 75.17203988 38.86694336 73.94482422 C34.53351195 65.7581334 30.09217557 57.62938254 25.62573242 49.51464844 C21.33802011 41.69658941 17.21658025 33.79685843 13.125 25.875 C12.81184845 25.26916077 12.4986969 24.66332153 12.17605591 24.03912354 C8.05304757 16.05622267 4.01866539 8.03733078 0 0 Z " fill="#595959" transform="translate(1213,1206)"/>
<path d="M0 0 C42.24 0 84.48 0 128 0 C124 31 124 31 122 40 C100.88 40 79.76 40 58 40 C58 51.88 58 63.76 58 76 C76.48 76 94.96 76 114 76 C114 88.87 114 101.74 114 115 C95.52 115 77.04 115 58 115 C58 127.87 58 140.74 58 154 C80.44 154 102.88 154 126 154 C126 167.2 126 180.4 126 194 C84.42 194 42.84 194 0 194 C0 129.98 0 65.96 0 0 Z " fill="#595959" transform="translate(1548,1206)"/>
<path d="M0 0 C40.59 0 81.18 0 123 0 C121.84528689 19.63012295 121.84528689 19.63012295 120.5 27.875 C120.36980469 28.72707031 120.23960938 29.57914063 120.10546875 30.45703125 C119.58721453 33.77071733 119.0634325 36.80970251 118 40 C98.2 40 78.4 40 58 40 C58 53.86 58 67.72 58 82 C75.49 82 92.98 82 111 82 C111 95.53 111 109.06 111 123 C93.51 123 76.02 123 58 123 C58 146.76 58 170.52 58 195 C38.86 195 19.72 195 0 195 C0 130.65 0 66.3 0 0 Z " fill="#5A5A5A" transform="translate(1007,1206)"/>
<path d="M0 0 C50.82 0 101.64 0 154 0 C154 6.39670101 153.91675588 12.00483279 152.90625 18.1953125 C152.80795898 18.8339624 152.70966797 19.4726123 152.60839844 20.13061523 C152.24716244 22.46336617 151.8728734 24.79408091 151.5 27.125 C150.675 32.36375 149.85 37.6025 149 43 C134.48 43 119.96 43 105 43 C105 93.16 105 143.32 105 195 C85.86 195 66.72 195 47 195 C47 144.84 47 94.68 47 43 C31.49 43 15.98 43 0 43 C0 28.81 0 14.62 0 0 Z " fill="#595959" transform="translate(1383,1206)"/>
<path d="M0 0 C18.81 0 37.62 0 57 0 C57 64.02 57 128.04 57 194 C38.19 194 19.38 194 0 194 C0 129.98 0 65.96 0 0 Z " fill="#595959" transform="translate(1143,1206)"/>
<path d="M0 0 C6.39109562 2.93281635 10.18801185 7.9015796 12.85864258 14.34790039 C13.93752211 17.75651586 13.96935396 21.07380052 13.91796875 24.625 C13.90894531 25.37120605 13.89992188 26.11741211 13.890625 26.88623047 C13.66712694 34.03972047 12.53180083 39.97354235 7.57421875 45.3984375 C1.01355038 51.39606343 -3.42938555 52.71574993 -12.3203125 52.56640625 C-18.45734698 52.07934002 -23.13745216 49.69457909 -27.51953125 45.3125 C-33.13851387 36.1367203 -34.08059345 25.84934806 -31.90625 15.3515625 C-29.44316021 8.29866222 -24.89112768 4.09612337 -18.69140625 0.1484375 C-13.10211942 -2.00283477 -5.70896284 -1.55779451 0 0 Z " fill="#FCFDFD" transform="translate(1178.51953125,1451.6875)"/>
<path d="M0 0 C18.21829332 0 18.21829332 0 25.25390625 6.18359375 C31.69390912 13.06594025 32.67933181 19.24224687 32.44140625 28.5078125 C31.77813656 36.48342583 28.74717633 42.69032367 23.125 48.3125 C16.07090097 53.65073711 7.64711106 53.61138781 -0.8125 53.5 C-1.76962891 53.49935547 -2.72675781 53.49871094 -3.71289062 53.49804688 C-10.73430246 53.45319754 -10.73430246 53.45319754 -11.875 52.3125 C-11.91563832 50.64632885 -11.917721 48.97861905 -11.875 47.3125 C-9.895 46.8175 -9.895 46.8175 -7.875 46.3125 C-7.875 33.1125 -7.875 19.9125 -7.875 6.3125 C-9.195 6.3125 -10.515 6.3125 -11.875 6.3125 C-11.917721 4.64638095 -11.91563832 2.97867115 -11.875 1.3125 C-9.44503522 -1.11746478 -3.25510556 0.02008085 0 0 Z " fill="#0C4B6A" transform="translate(1509.875,1450.6875)"/>
<path d="M0 0 C26.46666667 0 26.46666667 0 33.05859375 5.81640625 C33.74115234 6.68072266 33.74115234 6.68072266 34.4375 7.5625 C34.91058594 8.14128906 35.38367187 8.72007813 35.87109375 9.31640625 C39.70943542 15.04071511 38.60408551 24.33530727 38 31 C36.48525657 37.03300669 33.01060747 40.52325196 28 44 C19.24261569 48.37869215 9.59006084 47 0 47 C0 31.49 0 15.98 0 0 Z " fill="#FDFDFD" transform="translate(1751,1246)"/>
<path d="M0 0 C3.9998593 -0.08783475 7.99946704 -0.14067102 12 -0.1875 C13.12535156 -0.21263672 14.25070312 -0.23777344 15.41015625 -0.26367188 C23.51931523 -0.33480485 29.61656131 0.10997945 36 5.5625 C38.69058377 10.18694085 38.77484548 13.7719217 38 19 C36.34439474 23.70540441 34.18129645 26.28215731 30 29 C29.01 29 28.02 29 27 29 C28.70379135 31.82862447 30.44202773 34.63443735 32.1875 37.4375 C32.67025391 38.23994141 33.15300781 39.04238281 33.65039062 39.86914062 C34.13056641 40.63291016 34.61074219 41.39667969 35.10546875 42.18359375 C35.54012451 42.89056396 35.97478027 43.59753418 36.42260742 44.32592773 C38.4679216 46.4966009 40.09191929 46.67211765 43 47 C43 48.65 43 50.3 43 52 C39.51492685 52.5811325 36.4647203 52.77904184 33 52 C30.23905812 49.30084776 28.69956067 46.06364601 27 42.625 C23.99021909 36.03828256 23.99021909 36.03828256 18.3984375 31.95214844 C15.33590711 31.28741893 15.33590711 31.28741893 11 31 C11 36.28 11 41.56 11 47 C12.32 47 13.64 47 15 47 C15 48.65 15 50.3 15 52 C9.72 52 4.44 52 -1 52 C-0.67 50.35 -0.34 48.7 0 47 C1.32 47 2.64 47 4 47 C4 33.47 4 19.94 4 6 C2.35 5.67 0.7 5.34 -1 5 C-0.67 3.35 -0.34 1.7 0 0 Z " fill="#094968" transform="translate(1257,1451)"/>
<path d="M0 0 C3.79540855 -0.54702508 7.21660765 -0.70511067 11 0 C14.01738532 2.35067376 15.32853512 5.61659894 17 9 C17.85633804 10.61168796 18.71745206 12.2208429 19.58203125 13.828125 C22.0993131 18.52943465 24.56290253 23.25669962 27 28 C30.77126116 22.19019192 34.0759421 16.21580087 37.25 10.0625 C38.12856805 8.36503544 39.00869115 6.66837452 39.890625 4.97265625 C40.27250977 4.23281494 40.65439453 3.49297363 41.04785156 2.73071289 C42 1 42 1 43 0 C44.83115883 -0.09851171 46.66619933 -0.12972629 48.5 -0.125 C49.5003125 -0.12757812 50.500625 -0.13015625 51.53125 -0.1328125 C54 0 54 0 55 1 C55.04063832 2.66617115 55.042721 4.33388095 55 6 C53.68 6 52.36 6 51 6 C51 19.53 51 33.06 51 47 C52.32 47 53.64 47 55 47 C55 48.65 55 50.3 55 52 C50.05 52 45.1 52 40 52 C40 50.35 40 48.7 40 47 C41.32 47 42.64 47 44 47 C43.67 35.78 43.34 24.56 43 13 C38.764786 20.85234958 38.764786 20.85234958 34.53344727 28.70678711 C34.00807373 29.6788208 33.4827002 30.65085449 32.94140625 31.65234375 C32.40201416 32.65257568 31.86262207 33.65280762 31.30688477 34.68334961 C30 37 30 37 29 38 C27.35 38 25.7 38 24 38 C19.71 29.75 15.42 21.5 11 13 C10.67 23.89 10.34 34.78 10 46 C11.32 46.33 12.64 46.66 14 47 C14 48.65 14 50.3 14 52 C9.05 52 4.1 52 -1 52 C-1 50.35 -1 48.7 -1 47 C0.32 47 1.64 47 3 47 C3 33.47 3 19.94 3 6 C1.68 5.67 0.36 5.34 -1 5 C-0.67 3.35 -0.34 1.7 0 0 Z " fill="#0C4B6A" transform="translate(1603,1451)"/>
<path d="M0 0 C3.37154793 0.04316349 4.83539802 0.19277581 7.34765625 2.49609375 C9.21041549 5.14808584 10.80865771 7.85027295 12.375 10.6875 C13.25502686 12.17564209 13.25502686 12.17564209 14.15283203 13.69384766 C15.34523082 15.71127856 16.52389428 17.7368927 17.68847656 19.77050781 C19.64927306 23.16187964 21.71085661 26.47849312 23.80810547 29.78662109 C25.68096636 32.74273508 27.52533103 35.71681953 29.375 38.6875 C29.705 28.1275 30.035 17.5675 30.375 6.6875 C29.055 6.3575 27.735 6.0275 26.375 5.6875 C26.705 4.0375 27.035 2.3875 27.375 0.6875 C29.52076637 0.66064062 31.66662645 0.64116912 33.8125 0.625 C35.00746094 0.61339844 36.20242188 0.60179687 37.43359375 0.58984375 C40.375 0.6875 40.375 0.6875 41.375 1.6875 C41.41563832 3.35367115 41.417721 5.02138095 41.375 6.6875 C40.055 6.6875 38.735 6.6875 37.375 6.6875 C37.37944122 7.2468222 37.38388245 7.80614441 37.38845825 8.38241577 C37.43261149 14.18948824 37.46283294 19.99651325 37.48486328 25.80371094 C37.49493789 27.97267594 37.50859798 30.14162731 37.52587891 32.31054688 C37.55006323 35.42321126 37.56146832 38.53569651 37.5703125 41.6484375 C37.58063507 42.622435 37.59095764 43.5964325 37.60159302 44.59994507 C37.60181961 45.95111923 37.60181961 45.95111923 37.60205078 47.32958984 C37.606492 48.12456879 37.61093323 48.91954773 37.61550903 49.73861694 C37.375 51.6875 37.375 51.6875 35.375 53.6875 C32.41304116 53.52585217 30.88459477 53.20332454 28.77734375 51.0703125 C28.29394531 50.32523438 27.81054688 49.58015625 27.3125 48.8125 C26.72597656 47.92046875 26.13945313 47.0284375 25.53515625 46.109375 C24.81384657 44.96954487 24.09395609 43.82881614 23.375 42.6875 C22.39472961 41.1509151 21.41424438 39.61446725 20.43359375 38.078125 C17.39189549 33.29503928 14.37859876 28.4945758 11.375 23.6875 C8.9 19.7275 8.9 19.7275 6.375 15.6875 C6.045 26.2475 5.715 36.8075 5.375 47.6875 C6.695 47.6875 8.015 47.6875 9.375 47.6875 C9.375 49.3375 9.375 50.9875 9.375 52.6875 C4.425 52.6875 -0.525 52.6875 -5.625 52.6875 C-5.625 51.0375 -5.625 49.3875 -5.625 47.6875 C-4.305 47.6875 -2.985 47.6875 -1.625 47.6875 C-1.625 34.1575 -1.625 20.6275 -1.625 6.6875 C-2.945 6.6875 -4.265 6.6875 -5.625 6.6875 C-5.667721 5.02138095 -5.66563832 3.35367115 -5.625 1.6875 C-3.99517157 0.05767157 -2.2488006 0.20721577 0 0 Z " fill="#114E6D" transform="translate(1721.625,1450.3125)"/>
<path d="M0 0 C3.37154793 0.04316349 4.83539802 0.19277581 7.34765625 2.49609375 C9.21041549 5.14808584 10.80865771 7.85027295 12.375 10.6875 C13.25502686 12.17564209 13.25502686 12.17564209 14.15283203 13.69384766 C15.34523082 15.71127856 16.52389428 17.7368927 17.68847656 19.77050781 C19.64927306 23.16187964 21.71085661 26.47849312 23.80810547 29.78662109 C25.68096636 32.74273508 27.52533103 35.71681953 29.375 38.6875 C29.705 28.1275 30.035 17.5675 30.375 6.6875 C29.055 6.3575 27.735 6.0275 26.375 5.6875 C26.705 4.0375 27.035 2.3875 27.375 0.6875 C29.52076637 0.66064062 31.66662645 0.64116912 33.8125 0.625 C35.00746094 0.61339844 36.20242188 0.60179687 37.43359375 0.58984375 C40.375 0.6875 40.375 0.6875 41.375 1.6875 C41.41563832 3.35367115 41.417721 5.02138095 41.375 6.6875 C40.055 6.6875 38.735 6.6875 37.375 6.6875 C37.37944122 7.2468222 37.38388245 7.80614441 37.38845825 8.38241577 C37.43261149 14.18948824 37.46283294 19.99651325 37.48486328 25.80371094 C37.49493789 27.97267594 37.50859798 30.14162731 37.52587891 32.31054688 C37.55006323 35.42321126 37.56146832 38.53569651 37.5703125 41.6484375 C37.58063507 42.622435 37.59095764 43.5964325 37.60159302 44.59994507 C37.60181961 45.95111923 37.60181961 45.95111923 37.60205078 47.32958984 C37.606492 48.12456879 37.61093323 48.91954773 37.61550903 49.73861694 C37.375 51.6875 37.375 51.6875 35.375 53.6875 C32.41304116 53.52585217 30.88459477 53.20332454 28.77734375 51.0703125 C28.29394531 50.32523438 27.81054688 49.58015625 27.3125 48.8125 C26.72597656 47.92046875 26.13945313 47.0284375 25.53515625 46.109375 C24.81384657 44.96954487 24.09395609 43.82881614 23.375 42.6875 C22.39472961 41.1509151 21.41424438 39.61446725 20.43359375 38.078125 C17.39189549 33.29503928 14.37859876 28.4945758 11.375 23.6875 C8.9 19.7275 8.9 19.7275 6.375 15.6875 C6.045 26.2475 5.715 36.8075 5.375 47.6875 C6.695 47.6875 8.015 47.6875 9.375 47.6875 C9.375 49.3375 9.375 50.9875 9.375 52.6875 C4.425 52.6875 -0.525 52.6875 -5.625 52.6875 C-5.625 51.0375 -5.625 49.3875 -5.625 47.6875 C-4.305 47.6875 -2.985 47.6875 -1.625 47.6875 C-1.625 34.1575 -1.625 20.6275 -1.625 6.6875 C-2.945 6.6875 -4.265 6.6875 -5.625 6.6875 C-5.667721 5.02138095 -5.66563832 3.35367115 -5.625 1.6875 C-3.99517157 0.05767157 -2.2488006 0.20721577 0 0 Z " fill="#114E6D" transform="translate(1447.625,1450.3125)"/>
<path d="M0 0 C1.1859375 0.00257812 2.371875 0.00515625 3.59375 0.0078125 C4.7796875 0.00523438 5.965625 0.00265625 7.1875 0 C10.09375 0.1328125 10.09375 0.1328125 11.09375 1.1328125 C11.13438832 2.79898365 11.136471 4.46669345 11.09375 6.1328125 C9.77375 6.1328125 8.45375 6.1328125 7.09375 6.1328125 C7.09375 11.7428125 7.09375 17.3528125 7.09375 23.1328125 C15.34375 23.1328125 23.59375 23.1328125 32.09375 23.1328125 C32.09375 17.5228125 32.09375 11.9128125 32.09375 6.1328125 C30.77375 6.1328125 29.45375 6.1328125 28.09375 6.1328125 C28.051029 4.46669345 28.05311168 2.79898365 28.09375 1.1328125 C29.09375 0.1328125 29.09375 0.1328125 32 0 C33.1859375 0.00257812 34.371875 0.00515625 35.59375 0.0078125 C36.7796875 0.00523438 37.965625 0.00265625 39.1875 0 C42.09375 0.1328125 42.09375 0.1328125 43.09375 1.1328125 C43.13438832 2.79898365 43.136471 4.46669345 43.09375 6.1328125 C41.77375 6.1328125 40.45375 6.1328125 39.09375 6.1328125 C39.09375 19.3328125 39.09375 32.5328125 39.09375 46.1328125 C40.41375 46.4628125 41.73375 46.7928125 43.09375 47.1328125 C43.09375 48.7828125 43.09375 50.4328125 43.09375 52.1328125 C38.14375 52.1328125 33.19375 52.1328125 28.09375 52.1328125 C28.09375 50.4828125 28.09375 48.8328125 28.09375 47.1328125 C29.41375 47.1328125 30.73375 47.1328125 32.09375 47.1328125 C32.09375 40.8628125 32.09375 34.5928125 32.09375 28.1328125 C23.84375 28.1328125 15.59375 28.1328125 7.09375 28.1328125 C7.09375 34.4028125 7.09375 40.6728125 7.09375 47.1328125 C8.41375 47.1328125 9.73375 47.1328125 11.09375 47.1328125 C11.09375 48.7828125 11.09375 50.4328125 11.09375 52.1328125 C6.14375 52.1328125 1.19375 52.1328125 -3.90625 52.1328125 C-3.90625 50.4828125 -3.90625 48.8328125 -3.90625 47.1328125 C-1.92625 46.6378125 -1.92625 46.6378125 0.09375 46.1328125 C0.09375 32.9328125 0.09375 19.7328125 0.09375 6.1328125 C-1.22625 6.1328125 -2.54625 6.1328125 -3.90625 6.1328125 C-3.948971 4.46669345 -3.94688832 2.79898365 -3.90625 1.1328125 C-2.90625 0.1328125 -2.90625 0.1328125 0 0 Z " fill="#074767" transform="translate(1332.90625,1450.8671875)"/>
<path d="M0 0 C2.47485352 0.06323242 2.47485352 0.06323242 5 1 C6.35131836 3.1184082 6.35131836 3.1184082 7.40234375 5.98828125 C7.81468262 7.0757666 8.22702148 8.16325195 8.65185547 9.28369141 C9.09674316 10.51007324 9.54163086 11.73645508 10 13 C10.51293578 14.35573741 11.02882919 15.71035876 11.54736328 17.06396484 C11.81602203 17.76552704 12.08468079 18.46708923 12.36148071 19.18991089 C12.63535614 19.90454498 12.90923157 20.61917908 13.19140625 21.35546875 C13.7496332 22.81564657 14.30757339 24.27593406 14.86523438 25.73632812 C15.14455811 26.4666626 15.42388184 27.19699707 15.71166992 27.94946289 C16.28566077 29.45929763 16.85456097 30.97107619 17.41870117 32.48461914 C18.24524766 34.69734065 19.09129304 36.90171314 19.94140625 39.10546875 C20.18943497 39.78449753 20.43746368 40.46352631 20.69300842 41.16313171 C21.47702061 43.26838526 21.47702061 43.26838526 23 46 C25.07233875 47.03373162 25.07233875 47.03373162 27 47 C27.042721 48.66611905 27.04063832 50.33382885 27 52 C26 53 26 53 23.09375 53.1328125 C21.9078125 53.13023438 20.721875 53.12765625 19.5 53.125 C18.3140625 53.12757812 17.128125 53.13015625 15.90625 53.1328125 C13 53 13 53 12 52 C11.95936168 50.33382885 11.957279 48.66611905 12 47 C12.99 46.67 13.98 46.34 15 46 C14.01 42.7 13.02 39.4 12 36 C5.07 36 -1.86 36 -9 36 C-9.66 38.64 -10.32 41.28 -11 44 C-11.33 44.66 -11.66 45.32 -12 46 C-10.68 46.33 -9.36 46.66 -8 47 C-8 48.65 -8 50.3 -8 52 C-12.95 52 -17.9 52 -23 52 C-23 50.35 -23 48.7 -23 47 C-20.525 46.505 -20.525 46.505 -18 46 C-17.87326904 45.28247559 -17.74653809 44.56495117 -17.6159668 43.82568359 C-17.00328334 41.01506197 -16.15977857 38.47857303 -15.14453125 35.7890625 C-14.77207275 34.79793457 -14.39961426 33.80680664 -14.01586914 32.78564453 C-13.61875732 31.74263184 -13.22164551 30.69961914 -12.8125 29.625 C-12.40829834 28.55749512 -12.00409668 27.48999023 -11.58764648 26.39013672 C-10.39790766 23.25770173 -9.20079049 20.12821318 -8 17 C-7.67708984 16.15695312 -7.35417969 15.31390625 -7.02148438 14.4453125 C-6.20956686 12.33540712 -5.38902454 10.22921921 -4.5625 8.125 C-4.11003906 6.97257812 -3.65757813 5.82015625 -3.19140625 4.6328125 C-2 2 -2 2 0 0 Z " fill="#0B4A6A" transform="translate(1407,1451)"/>
<path d="M0 0 C15.74433657 0 15.74433657 0 21 4 C26.53209002 9.67393848 26.29645999 15.10576853 26.2109375 22.734375 C25.88983864 27.70546103 25.07790893 31.7891049 21.53515625 35.55859375 C14.0234642 42.04179007 12.42204765 40 0 40 C0 26.8 0 13.6 0 0 Z " fill="#FDFDFD" transform="translate(1509,1457)"/>
<path d="M0 0 C6.39109562 2.93281635 10.18801185 7.9015796 12.85864258 14.34790039 C13.93752211 17.75651586 13.96935396 21.07380052 13.91796875 24.625 C13.90894531 25.37120605 13.89992188 26.11741211 13.890625 26.88623047 C13.66712694 34.03972047 12.53180083 39.97354235 7.57421875 45.3984375 C1.01355038 51.39606343 -3.42938555 52.71574993 -12.3203125 52.56640625 C-18.45734698 52.07934002 -23.13745216 49.69457909 -27.51953125 45.3125 C-33.13851387 36.1367203 -34.08059345 25.84934806 -31.90625 15.3515625 C-29.44316021 8.29866222 -24.89112768 4.09612337 -18.69140625 0.1484375 C-13.10211942 -2.00283477 -5.70896284 -1.55779451 0 0 Z M-22.51953125 11.3125 C-27.03582512 18.08694081 -26.53583089 28.08695934 -25.0234375 35.86328125 C-23.53814146 40.31916936 -21.43631324 42.80174231 -17.51953125 45.3125 C-13.59440073 47.27506526 -8.80865896 46.65438699 -4.51953125 46.3125 C0.28000393 44.37226237 2.7176562 40.90005699 5.57421875 36.70703125 C6.97814932 32.99750779 6.80884996 29.369687 6.79296875 25.4375 C6.80908203 24.64730469 6.82519531 23.85710937 6.84179688 23.04296875 C6.84719218 16.55781269 5.29388429 12.50768723 1.10546875 7.4375 C-2.91461755 4.34435089 -7.49385139 4.57155051 -12.37890625 4.75 C-17.04056377 5.58492373 -19.62866188 7.65666212 -22.51953125 11.3125 Z " fill="#0A4969" transform="translate(1178.51953125,1451.6875)"/>
<path d="M0 0 C1.93166016 0.01740234 1.93166016 0.01740234 3.90234375 0.03515625 C5.19269531 0.04417969 6.48304687 0.05320312 7.8125 0.0625 C8.81152344 0.07410156 9.81054688 0.08570313 10.83984375 0.09765625 C11.16984375 1.74765625 11.49984375 3.39765625 11.83984375 5.09765625 C10.18984375 5.42765625 8.53984375 5.75765625 6.83984375 6.09765625 C6.90899706 10.54562741 6.99709472 14.99271085 7.10229492 19.43994141 C7.13542301 20.95090529 7.1634923 22.46198932 7.1862793 23.97314453 C7.22005056 26.15318707 7.27237271 28.33214064 7.328125 30.51171875 C7.35430908 31.82092285 7.38049316 33.13012695 7.4074707 34.47900391 C7.87048601 38.35411002 8.78034039 40.79989965 10.83984375 44.09765625 C14.16200613 46.31243117 15.39017698 46.39433332 19.27734375 46.41015625 C20.69853516 46.43529297 20.69853516 46.43529297 22.1484375 46.4609375 C25.38984122 46.02341857 26.6146378 45.49892245 28.83984375 43.09765625 C30.49264598 38.27422531 31.12302763 33.93401568 31.25390625 28.8515625 C31.2732724 28.19558578 31.29263855 27.53960907 31.31259155 26.86375427 C31.37173284 24.79601497 31.41850604 22.72821796 31.46484375 20.66015625 C31.50308408 19.24672231 31.5421392 17.83331016 31.58203125 16.41992188 C31.67737827 12.97936773 31.76164662 9.53864786 31.83984375 6.09765625 C30.51984375 6.09765625 29.19984375 6.09765625 27.83984375 6.09765625 C27.79712275 4.4315372 27.79920543 2.7638274 27.83984375 1.09765625 C28.83984375 0.09765625 28.83984375 0.09765625 31.74609375 -0.03515625 C32.93203125 -0.03257813 34.11796875 -0.03 35.33984375 -0.02734375 C36.52578125 -0.02992187 37.71171875 -0.0325 38.93359375 -0.03515625 C41.83984375 0.09765625 41.83984375 0.09765625 42.83984375 1.09765625 C42.88048207 2.7638274 42.88256475 4.4315372 42.83984375 6.09765625 C41.51984375 6.09765625 40.19984375 6.09765625 38.83984375 6.09765625 C38.86079102 6.94884033 38.88173828 7.80002441 38.90332031 8.67700195 C38.97220537 11.88822291 39.02198426 15.09906268 39.05957031 18.31079102 C39.07947045 19.69080125 39.10660115 21.07072962 39.14160156 22.45043945 C39.36033032 31.30573737 39.04303865 39.12933029 34.83984375 47.09765625 C32.33984375 49.66015625 32.33984375 49.66015625 29.83984375 51.09765625 C29.24816406 51.45085937 28.65648437 51.8040625 28.046875 52.16796875 C22.68043426 54.42852255 15.24724358 53.97458655 9.83984375 51.91015625 C4.86402355 48.90393155 2.45048399 45.22226562 0.45947266 39.78393555 C-0.94195074 33.70833994 -0.45953214 27.29938024 -0.34765625 21.09765625 C-0.33258366 19.64063882 -0.3188998 18.18360632 -0.30664062 16.7265625 C-0.27383528 13.183277 -0.22219532 9.64056454 -0.16015625 6.09765625 C-1.48015625 6.09765625 -2.80015625 6.09765625 -4.16015625 6.09765625 C-4.20287725 4.4315372 -4.20079457 2.7638274 -4.16015625 1.09765625 C-3.16015625 0.09765625 -3.16015625 0.09765625 0 0 Z " fill="#0A4969" transform="translate(1205.16015625,1450.90234375)"/>
<path d="M0 0 C5.10863896 -0.0246501 10.21724359 -0.04283607 15.32592773 -0.05493164 C17.06519168 -0.05997204 18.80445136 -0.0668043 20.54370117 -0.07543945 C23.03825937 -0.08751792 25.53276173 -0.09323108 28.02734375 -0.09765625 C28.80963852 -0.10281754 29.59193329 -0.10797882 30.39793396 -0.11329651 C32.26567114 -0.11349226 34.13329204 -0.06199694 36 0 C37 1 37 1 37.09765625 3.72265625 C37.08605469 4.82480469 37.07445312 5.92695312 37.0625 7.0625 C37.05347656 8.16722656 37.04445313 9.27195312 37.03515625 10.41015625 C37.02355469 11.26480469 37.01195312 12.11945313 37 13 C34.525 12.505 34.525 12.505 32 12 C32 10.02 32 8.04 32 6 C24.74 6 17.48 6 10 6 C10.33 11.28 10.66 16.56 11 22 C16.94 22.33 22.88 22.66 29 23 C29 24.65 29 26.3 29 28 C23.06 28.33 17.12 28.66 11 29 C11 34.61 11 40.22 11 46 C17.93 46.33 24.86 46.66 32 47 C32 44.36 32 41.72 32 39 C33.98 39 35.96 39 38 39 C38.02686553 40.97909398 38.04633375 42.95828971 38.0625 44.9375 C38.07410156 46.03964844 38.08570313 47.14179687 38.09765625 48.27734375 C38 51 38 51 37 52 C34.1883662 52.08861992 31.40141745 52.11522355 28.58984375 52.09765625 C27.74780899 52.0962413 26.90577423 52.09482635 26.03822327 52.09336853 C23.33794665 52.08775263 20.63775172 52.07519748 17.9375 52.0625 C16.11132932 52.05748705 14.28515734 52.05292379 12.45898438 52.04882812 C7.97262458 52.03777804 3.48632616 52.02050279 -1 52 C-0.67 50.35 -0.34 48.7 0 47 C1.32 47 2.64 47 4 47 C4 33.47 4 19.94 4 6 C2.35 5.67 0.7 5.34 -1 5 C-0.67 3.35 -0.34 1.7 0 0 Z " fill="#054566" transform="translate(1668,1451)"/>
<path d="M0 0 C1.27875 0.00257812 2.5575 0.00515625 3.875 0.0078125 C5.15375 0.00523438 6.4325 0.00265625 7.75 0 C10.875 0.1328125 10.875 0.1328125 11.875 1.1328125 C11.91563832 2.79898365 11.917721 4.46669345 11.875 6.1328125 C10.555 6.1328125 9.235 6.1328125 7.875 6.1328125 C9.68521413 9.11337386 11.49855251 12.09202201 13.3125 15.0703125 C14.0869043 16.34551758 14.0869043 16.34551758 14.87695312 17.64648438 C15.37001953 18.45537109 15.86308594 19.26425781 16.37109375 20.09765625 C16.82669678 20.846521 17.2822998 21.59538574 17.75170898 22.36694336 C18.75486088 24.08504176 18.75486088 24.08504176 19.875 25.1328125 C23.505 18.8628125 27.135 12.5928125 30.875 6.1328125 C29.555 5.8028125 28.235 5.4728125 26.875 5.1328125 C27.205 3.4828125 27.535 1.8328125 27.875 0.1328125 C32.495 0.1328125 37.115 0.1328125 41.875 0.1328125 C42.37 2.6078125 42.37 2.6078125 42.875 5.1328125 C42.09125 5.1946875 41.3075 5.2565625 40.5 5.3203125 C39.63375 5.5884375 38.7675 5.8565625 37.875 6.1328125 C37.16000626 7.77932584 36.49982055 9.45001082 35.875 11.1328125 C34.98451221 12.60177785 34.05422515 14.04720288 33.08984375 15.46875 C26.32356642 25.80098284 21.88314153 33.54383964 22.875 46.1328125 C24.195 46.4628125 25.515 46.7928125 26.875 47.1328125 C26.917721 48.79893155 26.91563832 50.46664135 26.875 52.1328125 C25.00256019 54.00525231 21.93840482 53.30661642 19.4375 53.3203125 C17.67599609 53.34158203 17.67599609 53.34158203 15.87890625 53.36328125 C12.875 53.1328125 12.875 53.1328125 10.875 51.1328125 C11.25 49.0078125 11.25 49.0078125 11.875 47.1328125 C13.195 47.1328125 14.515 47.1328125 15.875 47.1328125 C17.31488205 35.92360411 13.29670062 28.19244088 7.5625 18.7578125 C6.88566162 17.63383057 6.20882324 16.50984863 5.51147461 15.35180664 C2.50430286 9.81027445 2.50430286 9.81027445 -2.35229492 6.31787109 C-2.9372876 6.25680176 -3.52228027 6.19573242 -4.125 6.1328125 C-4.167721 4.46669345 -4.16563832 2.79898365 -4.125 1.1328125 C-3.125 0.1328125 -3.125 0.1328125 0 0 Z " fill="#0D4C6B" transform="translate(1098.125,1450.8671875)"/>
<path d="M0 0 C1.27875 0.00257812 2.5575 0.00515625 3.875 0.0078125 C5.15375 0.00523438 6.4325 0.00265625 7.75 0 C10.875 0.1328125 10.875 0.1328125 11.875 1.1328125 C11.91563832 2.79898365 11.917721 4.46669345 11.875 6.1328125 C10.885 6.4628125 9.895 6.7928125 8.875 7.1328125 C9.17792969 7.60702637 9.48085937 8.08124023 9.79296875 8.56982422 C11.15831246 10.71288871 12.51672139 12.86026388 13.875 15.0078125 C14.35195312 15.75417969 14.82890625 16.50054688 15.3203125 17.26953125 C15.77148438 17.98496094 16.22265625 18.70039062 16.6875 19.4375 C17.10644531 20.09733887 17.52539062 20.75717773 17.95703125 21.43701172 C18.875 23.1328125 18.875 23.1328125 18.875 25.1328125 C22.72458181 21.70703786 25.06884631 17.78739003 27.625 13.3828125 C28.24181641 12.33673828 28.24181641 12.33673828 28.87109375 11.26953125 C29.87780366 9.56046559 30.87715064 7.84706654 31.875 6.1328125 C30.555 6.1328125 29.235 6.1328125 27.875 6.1328125 C27.832279 4.46669345 27.83436168 2.79898365 27.875 1.1328125 C28.875 0.1328125 28.875 0.1328125 31.78125 0 C32.9671875 0.00257812 34.153125 0.00515625 35.375 0.0078125 C36.5609375 0.00523438 37.746875 0.00265625 38.96875 0 C41.875 0.1328125 41.875 0.1328125 42.875 1.1328125 C42.91563832 2.79898365 42.917721 4.46669345 42.875 6.1328125 C42.29000732 6.19388184 41.70501465 6.25495117 41.10229492 6.31787109 C36.18796976 8.11596573 33.76711216 14.47401661 31.1875 18.7578125 C30.67218216 19.60567825 30.67218216 19.60567825 30.14645386 20.47067261 C24.77349094 29.40229549 21.5272347 36.64071558 22.875 47.1328125 C24.525 47.4628125 26.175 47.7928125 27.875 48.1328125 C27 52.0078125 27 52.0078125 25.875 53.1328125 C23.71019203 53.2317419 21.54206215 53.2625235 19.375 53.2578125 C18.1890625 53.26039062 17.003125 53.26296875 15.78125 53.265625 C12.875 53.1328125 12.875 53.1328125 11.875 52.1328125 C11.83436168 50.46664135 11.832279 48.79893155 11.875 47.1328125 C13.855 46.6378125 13.855 46.6378125 15.875 46.1328125 C17.47517985 31.66261474 9.96892842 21.8000626 2.14428711 10.2331543 C0.875 8.1328125 0.875 8.1328125 0.875 6.1328125 C-0.775 6.1328125 -2.425 6.1328125 -4.125 6.1328125 C-4.167721 4.46669345 -4.16563832 2.79898365 -4.125 1.1328125 C-3.125 0.1328125 -3.125 0.1328125 0 0 Z " fill="#0D4C6B" transform="translate(1551.125,1450.8671875)"/>
<path d="M0 0 C14.50043691 -0.41038972 14.50043691 -0.41038972 20 3 C21.60086627 6.20173254 21.49917089 9.52577059 21 13 C19.20636089 15.8100346 17.98119065 17.50940468 15 19 C12.44612508 19.07173806 9.92723239 19.09287732 7.375 19.0625 C4.94125 19.041875 2.5075 19.02125 0 19 C0 12.73 0 6.46 0 0 Z " fill="#F3F6F8" transform="translate(1267,1457)"/>
<path d="M0 0 C2.91619791 3.40365621 4.2238027 6.91412309 5.6875 11.125 C6.34298828 12.98511719 6.34298828 12.98511719 7.01171875 14.8828125 C8 18 8 18 8 20 C3.05 20 -1.9 20 -7 20 C-5.04068712 13.14240492 -2.75665244 6.57678502 0 0 Z " fill="#EEF2F4" transform="translate(1408,1461)"/>
<path d="M0 0 C0.33 0 0.66 0 1 0 C1.06058594 1.21558594 1.12117187 2.43117188 1.18359375 3.68359375 C1.26798332 5.26824228 1.3526321 6.85287702 1.4375 8.4375 C1.47681641 9.23994141 1.51613281 10.04238281 1.55664062 10.86914062 C1.4054296 14.75239561 1.4054296 14.75239561 3 18 C3.09489453 19.44971662 3.11885024 20.90411902 3.11523438 22.35693359 C3.11463013 23.31636871 3.11402588 24.27580383 3.11340332 25.26431274 C3.10367493 26.8775795 3.10367493 26.8775795 3.09375 28.5234375 C3.09016479 29.66251556 3.08657959 30.80159363 3.08288574 31.97518921 C3.00907969 48.63198417 2.76412543 65.28787439 2.53643799 81.94311523 C2.4748458 86.47638293 2.41525445 91.00967694 2.35546875 95.54296875 C2.23888014 104.36200531 2.12016366 113.18101143 2 122 C1.67 122 1.34 122 1 122 C0.86795498 109.93221073 0.73746821 97.86440565 0.60884857 85.79657936 C0.5490476 80.19006159 0.48875487 74.5835501 0.42724609 68.97705078 C-0.09501517 21.31242969 -0.09501517 21.31242969 0 0 Z " fill="#ECECEC" transform="translate(863,1327)"/>
<path d="M0 0 C-25.85194266 8.93516598 -25.85194266 8.93516598 -35 7 C-35 6.67 -35 6.34 -35 6 C-34.30962646 5.85900879 -33.61925293 5.71801758 -32.90795898 5.57275391 C-29.7505611 4.92629079 -26.59403134 4.27568046 -23.4375 3.625 C-22.35146484 3.40328125 -21.26542969 3.1815625 -20.14648438 2.953125 C-13.50142214 1.59170768 -13.50142214 1.59170768 -6.97265625 -0.2265625 C-4.08075117 -0.97898984 -2.73546028 -1.09418411 0 0 Z " fill="#CACACA" transform="translate(892,1039)"/>
<path d="M0 0 C-0.33 0.66 -0.66 1.32 -1 2 C-3.94140625 2.6328125 -3.94140625 2.6328125 -7.5625 3.125 C-8.76003906 3.29257813 -9.95757813 3.46015625 -11.19140625 3.6328125 C-12.11824219 3.75398438 -13.04507813 3.87515625 -14 4 C-14 3.34 -14 2.68 -14 2 C-14.66 1.67 -15.32 1.34 -16 1 C-10.63904667 -0.12862175 -5.44693314 -0.09688221 0 0 Z " fill="#E9E9E9" transform="translate(862,1046)"/>
</svg>
